<svg width="477" height="519" viewBox="0 0 477 519" fill="none" xmlns="http://www.w3.org/2000/svg">
<g filter="url(#filter0_d)">
<path d="M232 465C106.079 465 4 475.297 4 488C4 500.703 106.079 511 232 511C357.921 511 460 500.703 460 488C460 475.297 357.921 465 232 465Z" fill="#282A36"/>
<path d="M438.38 398.817C438.38 398.817 406.032 491.056 402.566 491.056C399.1 491.056 329.782 512.963 391.013 485.291C391.013 485.291 397.945 384.981 408.342 380.369C418.74 375.758 438.38 398.817 438.38 398.817Z" fill="#965450"/>
<path d="M414.119 465.229C424.632 437.903 438.38 398.817 438.38 398.817C438.38 398.817 418.74 375.758 408.342 380.369C401.642 383.367 396.327 426.489 393.439 456.466C400.371 459.234 407.187 462.231 414.119 465.229Z" fill="#76413B"/>
<path d="M380.962 490.249C380.962 490.249 378.305 496.36 403.721 489.903L402.566 493.362C402.566 493.362 330.937 510.196 380.962 490.249Z" fill="#051F38"/>
<path d="M418.739 359.731C418.739 359.731 468.764 443.784 466.569 446.436C464.374 449.087 436.646 516.191 454.669 451.509C454.669 451.509 382.116 381.753 385.236 370.8C388.471 359.962 418.739 359.731 418.739 359.731Z" fill="#965450"/>
<path d="M452.128 462.347C452.128 462.347 455.132 468.342 466.454 444.706L468.418 447.819C468.302 447.819 435.261 513.539 452.128 462.347Z" fill="#051F38"/>
<path d="M447.854 409.771C434.452 386.134 418.74 359.731 418.74 359.731C418.74 359.731 388.471 359.962 385.236 370.8C383.157 377.833 412.964 409.655 434.106 431.101C434.221 431.216 442.424 422.108 447.854 409.771Z" fill="#76413B"/>
<path d="M450.509 233.364C450.509 233.364 419.894 199.351 401.987 220.681C384.08 242.011 356.353 312.343 360.396 341.168C362.822 358.117 379.112 376.219 392.167 388.325L381.192 450.125C381.192 450.125 426.248 462.231 423.36 462.231C421.627 462.231 467.839 338.286 472.46 299.084C477.081 259.883 450.509 233.364 450.509 233.364Z" fill="#BD93F9"/>
<path opacity="0.2" d="M427.058 240.974C435.607 240.858 444.965 239.705 453.168 236.362C451.551 234.402 450.511 233.364 450.511 233.364C450.511 233.364 419.895 199.351 401.988 220.681C399.216 224.025 396.212 228.406 393.208 233.71C403.259 239.244 415.967 241.204 427.058 240.974Z" fill="#352C38"/>
<path opacity="0.2" d="M381.193 257.461C368.485 286.401 357.74 322.374 360.398 341.053C362.708 357.886 378.882 375.873 391.937 387.979C396.558 356.618 404.992 313.035 410.075 287.9C397.483 280.752 387.085 270.49 381.193 257.461Z" fill="#352C38"/>
<path d="M362.131 165.337L343.646 201.08C343.646 201.08 311.298 183.209 306.676 183.209C302.055 183.209 280.105 183.785 290.502 188.397C290.502 188.397 285.881 191.279 291.08 192.432C291.08 192.432 286.459 196.468 292.235 197.044L305.521 196.468C305.521 196.468 332.093 220.681 345.379 224.139C358.665 227.598 380.038 182.632 380.038 182.632L362.131 165.337Z" fill="#965450"/>
<path d="M365.135 190.934C368.023 191.972 371.027 193.01 374.03 194.047C377.727 187.591 380.038 182.517 380.038 182.517L362.131 165.223L351.964 184.823C356.008 187.36 360.513 189.32 365.135 190.934Z" fill="#76413B"/>
<path d="M385.236 148.043C385.236 148.043 367.907 145.161 361.552 154.385C355.198 163.608 352.31 178.597 352.31 178.597L377.149 190.704L385.236 148.043Z" fill="#50FA7B"/>
<path opacity="0.1" d="M375.648 180.673C369.294 175.715 362.016 169.489 357.279 161.994C353.813 170.065 352.196 178.482 352.196 178.482L377.034 190.588L378.536 182.748C377.612 182.172 376.572 181.48 375.648 180.673Z" fill="#161826"/>
<path d="M263.699 178.943C264.392 180.788 263.353 182.863 261.504 183.555L247.872 188.513C246.023 189.205 243.944 188.167 243.25 186.322L237.821 171.218C237.127 169.373 238.167 167.298 240.016 166.606L253.648 161.648C255.497 160.957 257.576 161.994 258.269 163.839L263.699 178.943Z" fill="#6633CC" fill-opacity="0.5"/>
<path d="M274.674 167.644L231.928 182.979C224.419 185.63 220.607 193.932 223.264 201.426L236.434 237.976C239.091 245.47 247.409 249.275 254.919 246.623L297.665 231.289C305.174 228.637 308.987 220.335 306.33 212.841L293.159 176.291C290.387 168.797 282.184 164.877 274.674 167.644ZM302.171 216.185C303.21 219.182 301.708 222.526 298.705 223.564L280.335 172.832C283.339 171.795 286.69 173.294 287.729 176.291L302.171 216.185Z" fill="#BD93F9"/>
<path d="M260.926 163.608C261.504 165.223 260.695 167.067 259.078 167.644L239.669 174.677C238.051 175.254 236.203 174.447 235.625 172.832L234.008 168.336C233.43 166.722 234.239 164.877 235.856 164.3L255.265 157.267C256.883 156.691 258.731 157.498 259.309 159.112L260.926 163.608Z" fill="#6633CC"/>
<path d="M288.192 185.515C288.192 185.515 295.47 182.979 296.741 184.477C297.896 185.861 290.618 187.936 290.964 188.052C291.195 188.167 298.82 186.438 299.514 188.052C300.207 189.666 291.427 192.548 291.427 192.548C291.427 192.548 299.745 190.242 300.322 191.972C300.9 193.701 291.658 196.238 291.658 196.238L291.195 192.433L290.618 188.052L288.192 185.515Z" fill="#965450"/>
<path d="M298.474 183.555C298.474 183.555 292.813 179.75 292.813 178.482C292.697 177.098 307.832 183.44 307.832 183.44L298.474 183.555Z" fill="#965450"/>
<path d="M410.075 145.161C408.92 147.236 414.581 98.9261 414.581 98.9261L388.356 116.567C388.356 116.567 390.666 147.467 387.778 147.582C386.623 147.582 382.117 149.312 377.149 151.156C378.305 156.921 380.615 158.189 382.579 163.724C397.252 163.609 413.195 163.263 422.206 149.888C417.007 148.159 411.577 142.278 410.075 145.161Z" fill="#76413B"/>
<path d="M385.237 148.043L384.081 144.008L412.964 137.666L414.119 144.584C414.119 144.584 448.778 156.114 453.399 182.056C458.02 207.998 455.71 224.717 450.511 233.364C450.511 233.364 410.076 239.129 392.746 230.482C375.417 221.834 357.509 157.267 366.752 151.502C375.994 145.737 385.237 148.043 385.237 148.043Z" fill="#50FA7B"/>
<path opacity="0.1" d="M423.015 219.874C409.152 219.067 392.169 217.453 380.616 208.921C378.421 207.307 376.457 205.577 374.608 203.617C379.807 216.415 386.277 227.253 392.746 230.482C410.076 239.129 450.511 233.364 450.511 233.364C452.822 229.559 454.555 224.14 455.363 216.992C444.966 220.105 434.106 220.566 423.015 219.874Z" fill="#161826"/>
<path d="M421.628 199.927L451.088 197.621C451.088 197.621 443.579 249.505 434.914 267.377C426.25 285.248 386.392 355.58 401.988 316.378C401.988 316.378 381.771 346.933 399.1 315.802C399.1 315.802 380.038 340.591 396.789 314.073C396.789 314.073 377.149 336.556 397.945 304.849C397.945 304.849 382.348 312.343 399.678 299.66L416.43 255.847L421.628 199.927Z" fill="#965450"/>
<path d="M450.395 201.772C450.858 199.12 451.089 197.506 451.089 197.506L421.628 199.812L421.397 202.81C430.986 202.81 440.691 202.349 450.395 201.772Z" fill="#76413B"/>
<path d="M390.782 67.9108C390.782 67.9108 405.454 59.3787 426.943 73.4451C441.153 82.7843 440.46 112.647 409.729 132.247C373.222 155.538 390.782 67.9108 390.782 67.9108Z" fill="#051F38"/>
<path d="M411.116 83.822C411.116 83.822 394.595 71.0238 380.5 77.25C362.709 85.3209 364.557 104.114 364.21 120.141C363.748 141.471 380.616 145.507 385.699 145.737C393.208 146.198 423.824 144.354 411.116 83.822Z" fill="#965450"/>
<path d="M412.733 103.769C412.733 103.769 413.426 100.54 418.972 103.077C426.019 106.42 422.207 123.254 414.35 122.793C406.379 122.447 412.733 103.769 412.733 103.769Z" fill="#965450"/>
<path d="M412.733 103.769C412.733 103.769 413.657 115.298 411 115.414C408.227 115.529 405.339 94.5447 412.964 94.5447C420.589 94.7753 412.733 103.769 412.733 103.769Z" fill="#051F38"/>
<path d="M412.733 103.769C412.733 103.769 407.072 78.1724 373.453 82.4384C373.453 82.4384 378.305 72.8686 388.934 68.372C403.375 62.2612 424.979 86.8198 418.971 103.077C418.971 103.077 416.199 103.423 412.733 103.769Z" fill="#50FA7B"/>
<path d="M426.943 80.1324C426.943 80.1324 425.094 49.5783 432.488 49.5783C439.882 49.5783 431.91 75.2899 431.91 75.2899C431.91 75.2899 438.034 38.5097 455.825 44.044C473.617 49.5783 442.886 75.2899 442.886 75.2899C442.886 75.2899 456.98 62.3765 461.948 66.7578C466.8 71.0238 441.73 79.6712 441.73 79.6712C441.73 79.6712 460.793 74.1369 463.219 83.3608C465.645 92.4694 426.365 91.2011 426.943 80.1324Z" fill="#051F38"/>
<path d="M365.135 97.8889C365.135 97.8889 365.135 97.6583 365.366 97.1971C365.597 96.7359 365.828 96.1594 366.405 95.5829C366.983 95.0064 367.676 94.3146 368.6 93.8534C368.831 93.7381 369.063 93.6228 369.409 93.5075C369.64 93.3922 369.987 93.2769 370.218 93.2769C370.564 93.2769 370.795 93.1616 371.142 93.1616H372.066C372.644 93.1616 373.222 93.3922 373.799 93.6228C374.377 93.8534 374.839 94.084 375.301 94.4299C375.763 94.7758 376.11 95.1217 376.456 95.4676C376.803 95.8135 377.034 96.1594 377.15 96.5053C377.265 96.6206 377.381 96.8512 377.381 96.9665C377.496 97.0818 377.496 97.3124 377.612 97.4277C377.727 97.7736 377.843 98.0042 377.843 98.2348C377.958 98.6959 377.958 98.9265 377.958 98.9265C377.958 98.9265 377.727 98.8112 377.265 98.696C377.034 98.5807 376.803 98.4653 376.572 98.3501C376.341 98.2348 375.994 98.1195 375.648 97.8889C375.301 97.7736 375.07 97.543 374.723 97.4277C374.377 97.3124 374.03 97.1971 373.684 97.0818C373.337 96.9665 372.991 96.8512 372.644 96.7359C372.297 96.7359 371.951 96.6206 371.604 96.6206H371.142C371.027 96.6206 370.795 96.6206 370.564 96.6206C370.218 96.6206 369.871 96.7359 369.525 96.7359C369.178 96.8512 368.831 96.8512 368.485 96.9665C368.138 97.0818 367.792 97.0818 367.445 97.1971C366.752 97.4277 366.174 97.543 365.828 97.6583C365.481 97.8889 365.135 97.8889 365.135 97.8889Z" fill="#051F38"/>
<path d="M374.03 129.595C374.03 129.595 392.977 130.172 394.248 129.941C395.403 129.711 383.619 138.935 374.03 129.595Z" fill="white"/>
<path d="M375.301 108.496C375.301 108.496 375.301 108.726 375.185 109.188C375.07 109.649 374.954 110.225 374.723 111.032C374.608 111.378 374.492 111.839 374.261 112.185C374.146 112.416 374.03 112.647 373.915 112.762C373.799 112.992 373.568 113.223 373.453 113.338C373.106 113.684 372.759 114.145 372.182 114.376C372.066 114.491 371.951 114.491 371.72 114.607L371.373 114.722C371.142 114.837 370.795 114.837 370.449 114.837C369.871 114.837 369.178 114.722 368.716 114.261C368.254 113.915 367.907 113.454 367.676 112.877C367.445 112.416 367.329 111.955 367.214 111.494C367.098 111.032 367.098 110.571 367.098 110.225C367.098 109.418 367.098 108.842 367.214 108.381C367.329 107.919 367.445 107.689 367.445 107.689C367.445 107.689 367.445 108.726 367.792 110.225C367.907 110.917 368.138 111.839 368.6 112.531C368.831 112.877 369.062 113.223 369.409 113.454C369.756 113.684 370.102 113.8 370.449 113.8C370.68 113.8 370.795 113.8 371.026 113.684L371.373 113.569C371.373 113.569 371.489 113.454 371.604 113.454C371.951 113.338 372.297 112.992 372.644 112.762C372.99 112.416 373.221 112.07 373.453 111.724C373.684 111.378 373.915 111.032 374.03 110.686C374.377 109.995 374.608 109.418 374.839 109.072C375.185 108.726 375.301 108.496 375.301 108.496Z" fill="#1F2733"/>
<path d="M394.363 109.995C394.363 109.995 394.364 110.225 394.248 110.686C394.132 111.148 394.017 111.724 393.786 112.531C393.67 112.877 393.555 113.338 393.324 113.684C393.208 113.915 393.093 114.145 392.977 114.261C392.862 114.491 392.631 114.722 392.515 114.837C392.168 115.183 391.822 115.644 391.244 115.875C391.129 115.99 391.013 115.99 390.782 116.106L390.435 116.221C390.204 116.336 389.858 116.336 389.511 116.336C388.934 116.336 388.24 116.221 387.778 115.76C387.316 115.414 386.97 114.953 386.739 114.376C386.507 113.915 386.392 113.454 386.276 112.992C386.161 112.531 386.161 112.07 386.161 111.724C386.161 110.917 386.161 110.341 386.276 109.879C386.392 109.418 386.507 109.188 386.507 109.188C386.507 109.188 386.507 110.225 386.854 111.724C386.97 112.416 387.201 113.338 387.663 114.03C387.894 114.376 388.125 114.722 388.471 114.953C388.818 115.183 389.165 115.298 389.511 115.298C389.742 115.298 389.858 115.298 390.089 115.183L390.435 115.068C390.435 115.068 390.551 114.953 390.667 114.953C391.013 114.837 391.36 114.491 391.706 114.261C392.053 113.915 392.284 113.569 392.515 113.223C392.746 112.877 392.977 112.531 393.093 112.185C393.439 111.494 393.67 110.917 393.901 110.571C394.248 110.225 394.363 109.995 394.363 109.995Z" fill="#1F2733"/>
<path d="M415.39 119.565C415.736 119.103 415.967 118.757 416.199 118.296C416.43 117.835 416.545 117.374 416.661 116.913C416.661 116.682 416.661 116.451 416.661 116.221C416.661 116.106 416.545 115.99 416.545 115.99C416.545 115.875 416.43 115.76 416.314 115.76C416.199 115.644 416.199 115.644 416.083 115.529L415.852 115.298C415.736 115.183 415.621 115.183 415.505 115.183L415.159 115.068L414.928 114.953V114.722C414.581 113.454 414.466 112.301 414.35 111.032C414.235 110.456 414.235 109.764 414.35 109.188C414.35 108.496 414.466 107.919 414.697 107.228C414.812 106.882 415.043 106.536 415.39 106.305C415.736 106.075 416.199 105.844 416.545 105.959C417.007 105.959 417.238 106.075 417.585 106.19C417.931 106.305 418.278 106.421 418.509 106.651C418.74 106.882 419.087 107.112 419.202 107.343C419.433 107.574 419.549 107.919 419.664 108.15C419.896 108.726 420.011 109.418 419.895 109.995C419.78 109.418 419.664 108.842 419.318 108.265C419.202 108.035 418.971 107.804 418.74 107.573C418.509 107.343 418.278 107.228 418.047 107.112C417.816 106.997 417.585 106.882 417.238 106.882C417.007 106.882 416.661 106.766 416.43 106.766C415.967 106.766 415.736 107.112 415.621 107.573C415.274 108.611 415.39 109.764 415.39 110.917C415.505 112.07 415.621 113.338 415.852 114.491L415.621 114.146L415.967 114.376C416.083 114.491 416.199 114.491 416.314 114.607L416.661 114.837C416.776 114.953 416.892 115.068 417.007 115.183C417.123 115.299 417.238 115.414 417.238 115.644C417.354 115.76 417.354 115.99 417.354 116.106C417.469 116.451 417.354 116.682 417.354 117.028C417.238 117.604 416.892 118.066 416.545 118.527C416.199 118.873 415.736 119.334 415.39 119.565Z" fill="#76413B"/>
<path d="M377.034 124.407C376.457 124.522 375.995 124.522 375.532 124.522C375.07 124.522 374.608 124.407 374.262 124.292C373.799 124.176 373.453 123.946 373.106 123.831C372.875 123.715 372.76 123.6 372.529 123.485C372.298 123.369 372.182 123.254 371.951 123.139L371.258 122.562L371.373 122.101C372.529 118.757 373.684 115.529 374.839 112.301C375.995 109.072 377.265 105.729 378.536 102.5C377.728 105.844 376.803 109.303 375.995 112.647C375.07 115.99 374.146 119.334 373.222 122.678L372.76 121.64C372.991 121.64 373.222 121.755 373.453 121.755C373.684 121.755 373.915 121.87 374.031 121.986C374.377 122.101 374.839 122.332 375.186 122.562C375.532 122.793 375.879 123.139 376.226 123.485C376.457 123.6 376.803 123.946 377.034 124.407Z" fill="#76413B"/>
<path d="M383.85 96.5048C383.85 96.5048 383.966 96.1589 384.312 95.813C384.544 95.5824 384.659 95.3518 385.006 95.0059C385.352 94.7753 385.583 94.4294 386.045 94.1988C386.392 93.9682 386.854 93.6223 387.432 93.3917C387.894 93.1611 388.472 92.9305 389.049 92.6999C389.627 92.5846 390.32 92.354 391.013 92.354C391.36 92.354 391.706 92.354 392.053 92.354L393.093 92.4693C393.786 92.4693 394.479 92.8152 395.057 92.9305C395.634 93.1611 396.212 93.507 396.79 93.7376C397.367 94.0835 397.829 94.4294 398.176 94.7753C398.638 95.1212 398.985 95.5824 399.216 95.9283C399.562 96.2742 399.793 96.6201 400.025 96.966C400.256 97.3119 400.371 97.6578 400.487 97.8884C400.718 98.3496 400.833 98.6955 400.833 98.6955C400.833 98.6955 400.487 98.5802 400.025 98.3496C399.793 98.2343 399.447 98.119 399.1 97.8884C398.754 97.6578 398.407 97.5425 397.945 97.4272C397.598 97.3119 397.136 97.0813 396.674 96.8507C396.212 96.7354 395.75 96.5048 395.288 96.3895C394.826 96.2742 394.364 96.1589 393.901 96.0436C393.439 96.0436 392.977 95.813 392.4 95.813L391.706 95.6977H391.013C390.551 95.6977 389.973 95.6977 389.511 95.6977C389.049 95.6977 388.587 95.6977 388.125 95.813C387.663 95.813 387.201 95.9283 386.739 95.9283C385.93 96.0436 385.121 96.1589 384.659 96.2742C384.197 96.5048 383.85 96.5048 383.85 96.5048Z" fill="#051F38"/>
<path d="M367.907 490.825C367.907 494.976 364.557 498.435 360.398 498.55C356.239 498.55 352.773 495.207 352.657 491.056L352.311 466.613C352.311 462.462 355.661 459.003 359.82 458.888C363.979 458.888 367.445 462.231 367.56 466.382L367.907 490.825Z" fill="#091E1D"/>
<path d="M261.504 492.095C261.504 496.245 258.154 499.704 253.995 499.82C249.836 499.82 246.37 496.476 246.254 492.325L245.908 467.882C245.908 463.731 249.258 460.272 253.417 460.157C257.576 460.157 261.042 463.501 261.158 467.651L261.504 492.095Z" fill="#091E1D"/>
<path d="M359.358 473.415C359.474 482.87 351.849 490.595 342.375 490.71L271.209 491.517C261.735 491.633 253.995 484.023 253.879 474.568L246.254 312.92C246.139 303.466 253.764 295.741 263.237 295.625L345.841 294.588C355.315 294.472 363.055 302.082 363.171 311.536L359.358 473.415Z" fill="#50FA7B"/>
<path opacity="0.1" d="M362.708 327.793L363.055 311.767C362.939 302.313 355.199 294.703 345.725 294.818L263.122 295.856C253.648 295.971 246.023 303.696 246.139 313.151L246.947 329.177L362.708 327.793Z" fill="#161826"/>
<path d="M376.803 307.732C376.803 310.383 374.723 312.459 372.066 312.574L237.128 314.188C234.47 314.188 232.391 312.113 232.275 309.461L232.044 292.397C232.044 289.745 234.124 287.67 236.781 287.554L371.72 285.94C374.377 285.94 376.456 288.016 376.572 290.667L376.803 307.732Z" fill="#50FA7B"/>
<path d="M305.175 355.119L320.887 345.665L317.074 355.465L305.175 355.119Z" fill="white"/>
<path d="M299.282 340.246C299.282 340.246 300.553 340.246 302.517 343.243C304.481 346.241 308.871 354.312 308.871 354.312L316.843 350.738L318.691 347.625C318.691 347.625 315.226 340.707 312.453 340.246H299.282Z" fill="white"/>
<path d="M294.892 342.321C294.892 342.321 297.318 339.669 299.282 341.053C301.246 342.437 304.712 348.202 304.712 348.202L299.051 358.117L288.885 352.468L294.892 342.321Z" fill="white"/>
<path d="M312.338 367.456L313.146 385.673L306.33 377.718L312.338 367.456Z" fill="white"/>
<path d="M328.281 369.301C328.281 369.301 327.703 370.454 324.121 370.8C320.54 371.146 311.298 371.146 311.298 371.146L310.604 379.908L312.453 383.021C312.453 383.021 320.193 383.367 321.926 381.061L328.281 369.301Z" fill="white"/>
<path d="M328.396 364.458C328.396 364.458 329.667 367.802 327.472 368.955C325.392 369.993 318.576 370.223 318.576 370.223L312.453 360.538L322.273 354.197L328.396 364.458Z" fill="white"/>
<path d="M298.472 367.226L282.298 358.693L292.696 356.849L298.472 367.226Z" fill="white"/>
<path d="M288.885 380.024C288.885 380.024 288.192 378.986 289.694 375.758C291.195 372.529 295.817 364.574 295.817 364.574L288.654 359.616L285.072 359.731C285.072 359.731 280.913 366.303 281.953 368.84L288.885 380.024Z" fill="white"/>
<path d="M292.928 382.56C292.928 382.56 289.347 381.868 289.578 379.562C289.693 377.141 292.928 371.261 292.928 371.261L304.366 370.915L304.828 382.56H292.928Z" fill="white"/>
<path d="M57.2474 445.167C57.2474 445.167 54.7058 485.868 52.5107 486.675C44.077 489.557 -19.5799 505.699 40.6112 478.604L38.9937 448.972L57.2474 445.167Z" fill="#051F38"/>
<path d="M54.5902 476.759C56.0921 464.422 57.2474 445.167 57.2474 445.167L38.9937 448.972L40.4955 475.376C45.0012 476.644 50.2 476.759 54.5902 476.759Z" fill="#041523"/>
<path d="M15.079 492.786C13.2306 497.282 46.5031 488.75 52.5107 486.675C52.6262 486.56 52.8573 486.329 53.0883 485.752C45.5789 487.828 22.8195 493.016 15.079 492.786Z" fill="white"/>
<path d="M96.1809 442.977C96.1809 442.977 99.5313 483.677 101.842 484.369C110.391 487.136 174.279 502.01 113.51 476.067L114.55 446.436L96.1809 442.977Z" fill="#051F38"/>
<path d="M99.5313 474.453C97.7983 462.232 96.1809 442.977 96.1809 442.977L114.55 446.436L113.626 472.839C109.12 474.223 103.921 474.338 99.5313 474.453Z" fill="#041523"/>
<path d="M139.389 489.788C141.353 494.284 107.849 486.329 101.842 484.369C101.611 484.369 101.495 484.023 101.264 483.446C108.774 485.522 131.648 490.249 139.389 489.788Z" fill="white"/>
<path d="M107.387 223.218C107.387 223.218 124.024 357.31 120.673 465.806C120.673 465.806 100.802 471.34 95.6033 467.305C91.0976 441.593 91.6753 391.554 84.9746 354.427C78.6204 319.377 76.0788 290.667 76.0788 290.667L73.9992 288.361C73.9992 288.361 60.3667 457.85 57.363 470.764C40.149 474.799 34.7191 470.072 34.7191 470.072C34.7191 470.072 26.8631 258.038 31.7154 223.794C37.954 179.059 107.387 223.218 107.387 223.218Z" fill="#50FA7B"/>
<path opacity="0.1" d="M110.39 251.004C108.657 233.709 107.271 223.333 107.271 223.333C107.271 223.333 37.9529 179.173 31.5987 223.909C31.0211 228.06 30.6745 234.862 30.3279 243.51C35.5267 246.392 100.454 255.616 110.39 251.004Z" fill="#161826"/>
<path opacity="0.1" d="M74.8081 286.978C75.6168 296.086 79.7759 325.488 84.9747 354.427C91.6755 391.669 91.0978 441.593 95.6035 467.305C100.802 471.34 120.673 465.806 120.673 465.806C122.637 399.048 117.208 322.605 112.586 273.719C101.611 280.636 87.6319 283.98 74.8081 286.978Z" fill="#161826"/>
<path d="M80.7 105.959C80.8155 91.8929 81.8553 73.3298 81.8553 73.3298L54.1281 65.7201C54.1281 65.7201 55.0524 90.8552 55.8611 106.19C43.2683 110.456 28.9426 118.527 28.9426 118.527L81.2776 131.786L99.8779 113.8C99.8779 113.8 90.52 109.072 80.7 105.959Z" fill="#FFB39F"/>
<path d="M80.7 105.959C80.8155 91.8929 81.8553 73.3298 81.8553 73.3298L54.1281 65.7201C54.1281 65.7201 55.0524 90.8552 55.8611 106.19C43.2683 110.456 28.9426 118.527 28.9426 118.527L81.2776 131.786L106.001 110.571C106.001 110.571 90.6355 104.806 80.7 105.959Z" fill="#E09B8D"/>
<path d="M51.702 39.0862C51.702 39.0862 58.9804 15.5653 78.1584 19.2549C97.3363 22.9444 100.109 47.9642 102.535 64.7978C104.961 81.7466 99.5314 96.966 84.5125 98.8108C71.4576 100.425 48.6983 97.8884 51.702 39.0862Z" fill="#FFB39F"/>
<path d="M52.6264 58.8022C52.6264 58.8022 51.4711 55.6892 46.7344 59.1481C40.7269 63.5295 46.8499 79.6712 54.1283 77.9418C61.4067 76.2123 52.6264 58.8022 52.6264 58.8022Z" fill="#FFB39F"/>
<path d="M45.9256 25.5963C46.3877 25.481 55.399 24.7892 49.3915 25.3657C54.9369 31.3612 54.3592 32.8601 61.9842 34.2436C66.0278 46.6959 58.0562 54.1903 58.0562 54.1903L60.2513 69.1791L54.4748 69.7556C54.4748 69.7556 54.5903 59.3787 50.2002 58.4563C45.81 57.5339 44.5392 62.8377 44.5392 62.8377C35.4124 51.3078 26.17 28.7093 45.9256 25.5963Z" fill="#051F38"/>
<path d="M98.2607 17.1795C101.958 8.07089 95.719 0 95.719 0C96.7588 3.34366 96.2966 6.45671 95.2569 8.99328C94.5637 6.45671 93.2929 3.68955 90.9823 0.922387C90.9823 0.922387 91.6754 10.1463 79.0827 8.99328C66.49 7.84029 44.4238 9.56977 43.4995 29.0552C42.4598 48.5407 61.2911 34.3589 61.2911 34.3589C61.2911 34.3589 98.8383 44.8511 104.268 14.6429L98.2607 17.1795Z" fill="#051F38"/>
<path d="M80.4688 50.8476C80.4688 50.8476 80.1222 50.8476 79.6601 50.7323C79.0824 50.617 78.3893 50.5017 77.5806 50.3864C77.1184 50.2711 76.7719 50.2711 76.3097 50.2711C75.8476 50.1558 75.3855 50.1558 74.9234 50.1558C74.4613 50.1558 73.9991 50.1558 73.4215 50.1558C73.1904 50.1558 72.9594 50.1558 72.7283 50.1558L72.0351 50.2711C71.573 50.2711 71.1109 50.3864 70.5333 50.5017C70.0711 50.617 69.609 50.7323 69.1469 50.8476C68.6848 50.9629 68.2227 51.1935 67.7605 51.3088C67.2984 51.4241 66.9518 51.6547 66.4897 51.77C66.1431 51.8853 65.681 52.0006 65.4499 52.2312C65.1033 52.3465 64.8723 52.4618 64.6412 52.5771C64.1791 52.8077 63.8325 52.923 63.8325 52.923C63.8325 52.923 63.9481 52.5771 64.1791 52.1159C64.2946 51.8853 64.4102 51.5394 64.6412 51.1935C64.8723 50.8476 65.1033 50.5017 65.4499 50.1558C65.7965 49.8099 66.0276 49.3487 66.4897 49.0028C66.9518 48.6569 67.414 48.311 67.9916 47.9651C68.5692 47.7345 69.1469 47.3886 69.7245 47.158C70.4177 46.9274 70.9954 46.8121 71.6885 46.6968L72.7283 46.5815C73.0749 46.5815 73.4215 46.5815 73.7681 46.6968C74.1147 46.6968 74.4613 46.8121 74.6923 46.8121C75.0389 46.9274 75.27 46.9274 75.6166 47.0427C76.1942 47.2733 76.7719 47.3886 77.234 47.7345C77.6961 47.9651 78.1582 48.311 78.6203 48.5416C78.9669 48.7722 79.3135 49.1181 79.6601 49.3487C79.8912 49.5793 80.1222 49.9252 80.3533 50.0405C80.2378 50.5017 80.4688 50.8476 80.4688 50.8476Z" fill="#051F38"/>
<path d="M99.9934 50.2701C99.9934 50.2701 99.7624 50.1548 99.3002 50.0395C98.8381 49.9242 98.2605 49.6936 97.6828 49.463C97.3362 49.3477 96.9897 49.2324 96.6431 49.1172C96.2965 49.0019 95.9499 48.8865 95.6033 48.8865C95.2567 48.8865 94.9101 48.7713 94.5635 48.656C94.448 48.656 94.2169 48.656 94.1014 48.5407H93.6393C93.2927 48.4254 92.9461 48.656 92.5995 48.5407C92.2529 48.656 91.9063 48.656 91.5598 48.7713C91.2132 48.8866 90.8666 49.0019 90.52 49.1172C90.1734 49.2324 89.8268 49.3477 89.5958 49.463C89.2492 49.5783 88.9026 49.6936 88.6715 49.8089C88.4405 49.9242 88.2094 50.0395 87.9783 50.0395C87.5162 50.1548 87.2852 50.2701 87.2852 50.2701C87.2852 50.2701 87.2852 50.0395 87.5162 49.5783C87.6317 49.3477 87.6317 49.1171 87.8628 48.7713C87.9783 48.4254 88.2094 48.1948 88.4405 47.8489C88.6715 47.503 88.9026 47.1571 89.2492 46.8112C89.5957 46.4653 90.0579 46.2347 90.4045 45.8888C90.8666 45.6582 91.4442 45.4276 91.9063 45.197C92.484 45.0817 93.0616 44.9664 93.6393 44.9664C93.9859 44.9664 94.2169 44.9664 94.5635 44.9664C94.9101 44.9664 95.1412 45.0817 95.3722 45.197C95.6033 45.197 95.9499 45.3123 96.1809 45.4276C96.412 45.5429 96.6431 45.6582 96.8741 45.7735C97.7984 46.35 98.4916 46.9265 98.9537 47.6183C99.4158 48.3101 99.6468 48.8866 99.8779 49.3477C99.9934 50.0395 99.9934 50.2701 99.9934 50.2701Z" fill="#051F38"/>
<path d="M85.7832 51.5384C86.4764 53.0373 87.1696 54.6515 87.8627 56.1504C88.2093 56.9574 88.4404 57.6492 88.787 58.4563L89.7112 60.7623L90.6355 63.0683C90.982 63.8754 91.2131 64.5671 91.5597 65.3742L92.0218 66.5272C92.1374 66.8731 92.3684 67.3343 92.4839 67.6802C92.8305 68.372 93.1771 69.0638 93.5237 69.8709L93.8703 70.7933L93.1771 71.1392C92.1374 71.6004 91.0976 72.1768 89.9423 72.638C88.9025 73.0992 87.7472 73.5604 86.5919 73.9063C87.5161 73.0992 88.4404 72.4074 89.3646 71.7157C90.2889 71.0239 91.3286 70.3321 92.2529 69.6403L91.9063 70.9086C91.4442 70.2168 90.9821 69.4097 90.5199 68.7179C90.0578 68.0261 89.7112 67.219 89.3646 66.4119L88.787 65.2589L88.3249 64.106C88.0938 63.2989 87.7472 62.4918 87.5161 61.6847L86.823 59.2634C86.5919 58.4563 86.4764 57.6492 86.2453 56.8421C86.1298 54.9974 85.8987 53.2679 85.7832 51.5384Z" fill="#DD9078"/>
<path d="M52.2796 74.5981C51.8175 74.3675 51.3553 74.0216 51.0088 73.5604C50.6622 73.2145 50.2 72.7533 49.969 72.1769C49.8535 71.9463 49.7379 71.6004 49.7379 71.2545C49.7379 71.1392 49.7379 70.9086 49.7379 70.7933C49.7379 70.678 49.8535 70.4474 49.8535 70.3321C49.969 69.9862 50.2 69.7556 50.4311 69.525C50.5466 69.4097 50.6622 69.2944 50.7777 69.1791L51.1243 68.9485L50.8932 69.2944C50.8932 68.0261 50.8932 66.7578 50.7777 65.6048C50.6622 64.3366 50.5466 63.0683 50.0845 62.0306C49.969 61.8 49.8535 61.5694 49.6224 61.4541C49.5069 61.3388 49.2758 61.2235 49.0447 61.2235C48.9292 61.2235 48.8137 61.2235 48.6982 61.3388C48.5826 61.3388 48.3516 61.4541 48.236 61.4541C48.005 61.5694 47.7739 61.6847 47.5429 61.9153C47.3118 62.1459 47.0807 62.2612 46.9652 62.4918C46.8497 62.7224 46.6186 62.953 46.5031 63.2989C46.272 63.8754 46.1565 64.4519 46.1565 65.1436C45.9254 64.5671 45.9254 63.8754 46.041 63.1836C46.041 62.8377 46.1565 62.4918 46.3876 62.2612C46.5031 61.9153 46.7341 61.6847 46.9652 61.4541L47.3118 61.1082L47.7739 60.7623C47.8895 60.647 48.1205 60.647 48.236 60.5317C48.3516 60.4164 48.5826 60.4164 48.8137 60.3011C49.2758 60.1858 49.7379 60.3011 50.0845 60.647C50.4311 60.8776 50.6622 61.2235 50.7777 61.5694C51.1243 62.2612 51.2398 62.8377 51.4709 63.5295C51.5864 64.2213 51.7019 64.7977 51.7019 65.4895C51.8175 66.7578 51.8175 68.0261 51.7019 69.4097V69.6403L51.4709 69.7556C51.2398 69.8709 51.0088 69.9862 50.8932 70.2168C50.7777 70.3321 50.5466 70.5627 50.4311 70.678C50.3156 70.7933 50.3156 70.9086 50.3156 71.0239C50.3156 71.1392 50.2 71.2545 50.2 71.3698C50.2 71.6004 50.2 71.831 50.2 72.0615C50.3156 72.5227 50.5466 72.9839 50.8932 73.4451C51.5864 73.9063 51.933 74.2522 52.2796 74.5981Z" fill="#DD9078"/>
<path d="M70.4177 61.8C70.4177 61.8 70.5333 62.0306 70.6488 62.4917C70.7643 62.7223 70.7643 62.9529 70.8798 63.1835C70.9954 63.4141 71.1109 63.76 71.342 64.1059C71.4575 64.4518 71.8041 64.6824 71.9196 65.0283C72.0351 65.1436 72.1507 65.2589 72.3817 65.4895C72.4973 65.6048 72.6128 65.7201 72.8438 65.8354C73.1904 66.066 73.537 66.1813 73.8836 66.2966C74.1147 66.2966 74.2302 66.4119 74.4613 66.4119C74.6923 66.4119 74.8079 66.4119 75.0389 66.2966L75.6166 66.066L76.1942 65.7201C76.5408 65.4895 76.7719 65.1436 77.0029 64.7977C77.234 64.4518 77.3495 64.1059 77.5806 63.76C77.6961 63.4141 77.8116 63.0682 77.8116 62.607C77.8116 62.2611 77.8116 61.9152 77.9272 61.6847C77.9272 61.3388 77.9272 61.1082 77.9272 60.8776C77.9272 60.4164 77.9272 60.1858 77.9272 60.1858C77.9272 60.1858 78.0427 60.4164 78.1582 60.8776C78.2737 61.1082 78.2738 61.3388 78.3893 61.6847C78.3893 62.0305 78.5048 62.3764 78.5048 62.7223C78.5048 63.0682 78.5048 63.5294 78.3893 63.9906C78.2738 64.4518 78.1582 64.913 77.9272 65.3742C77.6961 65.8354 77.3495 66.2966 76.8874 66.6425L76.1942 67.1037C75.9632 67.219 75.6166 67.3343 75.3855 67.4496C75.1544 67.4496 74.8079 67.5649 74.4613 67.5649C74.2302 67.5649 73.8836 67.4496 73.6526 67.4496C73.0749 67.3343 72.6128 66.9884 72.1507 66.6425C71.6886 66.2966 71.4575 65.8354 71.2264 65.4895C70.9954 65.0283 70.7643 64.6824 70.6488 64.3365C70.5333 63.9906 70.4177 63.6447 70.4177 63.2988C70.4177 62.9529 70.4177 62.7223 70.4177 62.4917C70.4177 62.0306 70.4177 61.8 70.4177 61.8Z" fill="#1F2733"/>
<path d="M91.3286 58.341C91.3286 58.341 91.4441 58.5716 91.5597 59.0328C91.6752 59.2634 91.6752 59.494 91.7907 59.7246C91.9063 59.9552 92.0218 60.3011 92.2529 60.647C92.3684 60.9929 92.715 61.2235 92.8305 61.5694C92.946 61.6847 93.0616 61.8 93.2926 62.0306C93.4081 62.1459 93.5237 62.2612 93.7547 62.3765C94.1013 62.6071 94.4479 62.7224 94.7945 62.8377C95.0256 62.8377 95.1411 62.953 95.3722 62.953C95.6032 62.953 95.7187 62.953 95.9498 62.8377L96.5275 62.6071L97.1051 62.2612C97.4517 62.0306 97.6827 61.6847 97.9138 61.3388C98.1449 60.9929 98.2604 60.647 98.4915 60.3011C98.607 59.9552 98.7225 59.6093 98.7225 59.1481C98.7225 58.8022 98.7225 58.4563 98.838 58.2257C98.838 57.8798 98.838 57.6492 98.838 57.4186C98.838 56.9574 98.838 56.7269 98.838 56.7269C98.838 56.7269 98.9536 56.9574 99.0691 57.4186C99.1846 57.6492 99.1846 57.8798 99.3002 58.2257C99.3002 58.5716 99.4157 58.9175 99.4157 59.2634C99.4157 59.6093 99.4157 60.0705 99.3002 60.5317C99.1846 60.9929 99.0691 61.4541 98.838 61.9153C98.607 62.3765 98.2604 62.8377 97.7983 63.1836L97.1051 63.6448C96.874 63.7601 96.5275 63.8754 96.2964 63.9906C96.0653 63.9906 95.7187 64.106 95.3722 64.106C95.1411 64.106 94.7945 63.9906 94.5635 63.9906C93.9858 63.8754 93.5237 63.5295 93.0616 63.1836C92.5994 62.8377 92.3684 62.3765 92.1373 62.0306C91.9063 61.5694 91.6752 61.2235 91.5597 60.8776C91.4441 60.5317 91.3286 60.1858 91.3286 59.8399C91.3286 59.494 91.3286 59.2634 91.3286 59.0328C91.3286 58.5716 91.3286 58.341 91.3286 58.341Z" fill="#1F2733"/>
<path d="M72.2376 78.1034C72.2376 78.1034 72.1221 78.1034 72.2376 78.2187C72.3531 78.334 72.5842 78.4493 72.8153 78.5646C73.2774 78.9105 74.0861 79.2564 75.0103 79.7176C75.9346 80.1788 77.0899 80.64 78.2452 80.9858C78.8228 81.2164 79.516 81.3317 80.0936 81.447C80.6713 81.5623 81.3645 81.6776 82.0577 81.7929C83.3285 81.9082 84.5993 82.0235 85.8701 81.9082C87.1409 81.7929 88.1807 81.5623 89.2205 81.2164C90.1447 80.8705 90.9534 80.64 91.5311 80.4094C92.1087 80.1788 92.4553 80.0635 92.4553 80.0635C92.4553 80.0635 92.2243 80.4094 91.7621 80.7552C91.3 81.2164 90.6068 81.7929 89.6826 82.3694C88.7584 82.9459 87.4875 83.5224 86.1012 83.753C84.7148 84.0989 83.2129 84.0989 81.7111 83.9836C81.0179 83.8683 80.2092 83.753 79.516 83.5224C78.8228 83.2918 78.1296 83.0612 77.552 82.7153C76.2812 82.1388 75.2414 81.447 74.4327 80.7552C73.624 80.0635 72.9308 79.3717 72.5842 78.7952C72.3531 78.5646 72.2376 78.334 72.2376 78.1034C72.1221 78.2187 72.1221 78.1034 72.2376 78.1034Z" fill="#DD9078"/>
<path d="M90.2891 105.613C90.2891 105.613 119.865 102.5 123.677 125.099C127.49 147.813 127.143 153.923 127.143 153.923L98.2606 149.657L90.2891 105.613Z" fill="#BD93F9"/>
<path d="M115.242 123.83C113.509 109.417 98.8372 106.304 90.288 105.612C86.4755 110.916 81.1612 114.721 73.8828 114.952C65.5646 115.182 57.9397 112.3 53.8961 105.958C40.9568 107.457 28.133 111.147 25.2447 119.909C19.1217 138.357 24.436 239.82 24.436 239.82C24.436 239.82 76.1934 248.698 118.708 240.627C118.593 240.742 117.553 143.084 115.242 123.83Z" fill="#BD93F9"/>
<path opacity="0.2" d="M22.2419 169.258C22.473 202.695 24.437 239.936 24.437 239.936C24.437 239.936 76.1944 248.814 118.709 240.743C118.709 240.743 117.901 166.606 116.168 134.784C84.8591 146.429 53.5505 157.959 22.2419 169.258Z" fill="#352C38"/>
<path d="M54.1276 196.007C54.1276 196.007 52.9723 192.664 58.2866 190.473C63.601 188.282 118.362 173.985 121.828 174.447C125.294 174.908 167.693 179.981 168.387 182.287C169.08 184.593 117.669 201.196 117.669 201.196L54.1276 196.007Z" fill="#E1EDFF"/>
<path d="M120.558 205.577C120.558 205.577 60.5979 205.347 55.9767 199.928C51.3555 194.509 51.24 190.588 77.4652 195.2C103.69 199.812 118.825 199.12 118.825 199.12C118.825 199.12 166.885 176.753 168.503 182.172C170.005 187.706 175.088 186.322 120.558 205.577Z" fill="#C0D5FF"/>
<path d="M168.387 182.287C166.885 176.868 118.709 199.236 118.709 199.236C118.709 199.236 118.594 199.236 118.247 199.236C119.287 201.311 120.096 203.271 121.02 205.462C175.088 186.322 170.005 187.706 168.387 182.287Z" fill="#B1C5E8"/>
<path d="M52.3944 183.67C52.3944 183.67 51.2391 180.327 56.5535 178.136C61.8679 175.945 116.629 161.648 120.095 162.11C123.561 162.571 165.96 167.644 166.653 169.95C167.347 172.256 115.936 188.859 115.936 188.859L52.3944 183.67Z" fill="#E1EDFF"/>
<path d="M118.825 193.356C118.825 193.356 58.8647 193.125 54.2435 187.706C49.6223 182.287 49.5068 178.367 75.7321 182.979C101.957 187.591 117.092 186.899 117.092 186.899C117.092 186.899 165.152 164.531 166.77 169.95C168.156 175.369 173.355 173.985 118.825 193.356Z" fill="#C0D5FF"/>
<path d="M166.654 170.065C165.152 164.646 116.977 187.014 116.977 187.014C116.977 187.014 116.861 187.014 116.514 187.014C117.554 189.09 118.363 191.05 119.287 193.24C173.24 173.985 168.156 175.369 166.654 170.065Z" fill="#B1C5E8"/>
<path d="M52.1638 173.639C52.1638 173.639 51.124 170.757 56.2074 168.797C61.2907 166.837 114.319 154.269 117.669 154.73C121.02 155.192 162.033 159.688 162.726 161.648C163.419 163.608 113.626 178.367 113.626 178.367L52.1638 173.639Z" fill="#E1EDFF"/>
<path d="M116.399 182.172C116.399 182.172 58.403 181.941 53.8973 177.214C49.3916 172.486 49.3916 169.027 74.6927 173.063C99.9937 177.098 114.666 176.522 114.666 176.522C114.666 176.522 161.224 156.806 162.726 161.648C164.228 166.376 169.196 165.107 116.399 182.172Z" fill="#C0D5FF"/>
<path d="M162.726 161.648C161.224 156.921 114.666 176.522 114.666 176.522C114.666 176.522 114.55 176.522 114.204 176.522C115.128 178.251 116.052 180.096 116.861 181.941C169.196 165.107 164.228 166.376 162.726 161.648Z" fill="#B1C5E8"/>
<path d="M53.7811 160.15C53.7811 160.15 52.8569 157.267 58.0557 155.422C63.2546 153.693 116.629 143.085 119.98 143.662C123.33 144.123 164.112 150.234 164.69 152.194C165.267 154.154 115.012 166.952 115.012 166.952L53.7811 160.15Z" fill="white"/>
<path d="M117.67 171.102C117.67 171.102 59.6737 168.681 55.3991 163.838C51.1245 158.88 51.1245 155.537 76.31 160.494C101.495 165.452 116.168 165.452 116.168 165.452C116.168 165.452 163.419 147.581 164.69 152.308C166.077 157.035 171.044 155.998 117.67 171.102Z" fill="#C0D5FF"/>
<path d="M164.69 152.309C163.419 147.467 116.168 165.453 116.168 165.453C116.168 165.453 116.052 165.453 115.706 165.453C116.63 167.298 117.439 169.143 118.132 170.988C170.929 155.999 165.961 157.036 164.69 152.309Z" fill="#B1C5E8"/>
<path d="M23.6284 162.34L52.1643 155.422C52.1643 155.422 58.2874 196.93 59.9048 199.236C61.5222 201.542 109.236 203.848 109.236 203.848L123.1 204.655C123.1 204.655 64.526 229.213 47.6586 219.298C30.5602 209.151 23.6284 162.34 23.6284 162.34Z" fill="#FFB39F"/>
<path d="M26.4011 167.298C35.1814 164.646 43.7306 161.418 52.7419 159.458C52.3953 156.921 52.1643 155.422 52.1643 155.422L23.6284 162.34C23.6284 162.34 23.975 164.416 24.5527 167.875C25.2458 167.644 25.8235 167.413 26.4011 167.298Z" fill="#E09B8D"/>
<path d="M117.785 208.46C117.785 208.46 139.505 202.695 139.505 198.313C139.505 193.932 131.649 178.136 137.194 199.236C137.194 199.236 125.641 170.642 134.884 200.619C134.884 200.619 125.872 177.329 131.995 201.196C131.995 201.196 122.753 185.054 129.454 202.349L121.136 205.462L101.149 205.231L90.5203 215.608L117.785 208.46Z" fill="#FFB39F"/>
<path d="M168.618 187.36C168.618 187.36 157.065 158.766 166.308 188.744C166.308 188.744 157.297 165.453 163.42 189.32C163.42 189.32 154.177 173.178 160.069 190.588L153.715 193.586C156.026 193.817 159.029 193.701 161.456 192.894C168.849 191.395 170.929 188.859 170.929 186.553C170.929 182.172 163.073 166.376 168.618 187.36Z" fill="#FFB39F"/>
<path d="M198.078 490.825C198.078 494.976 194.728 498.435 190.569 498.55C186.41 498.55 182.944 495.207 182.828 491.056L182.482 466.613C182.482 462.462 185.832 459.003 189.991 458.888C194.15 458.888 197.616 462.231 197.732 466.382L198.078 490.825Z" fill="#091E1D"/>
<path d="M91.6754 492.095C91.6754 496.245 88.325 499.704 84.1659 499.82C80.0069 499.82 76.541 496.476 76.4254 492.325L76.0789 467.882C76.0789 463.731 79.4292 460.272 83.5883 460.157C87.7474 460.157 91.2133 463.501 91.3288 467.651L91.6754 492.095Z" fill="#091E1D"/>
<path d="M189.529 473.415C189.645 482.87 182.02 490.595 172.546 490.71L101.38 491.517C91.9064 491.633 84.1659 484.023 84.0503 474.568L76.4254 312.92C76.3098 303.466 83.9348 295.741 93.4083 295.625L176.012 294.588C185.485 294.472 193.226 302.082 193.342 311.536L189.529 473.415Z" fill="#BD93F9"/>
<path d="M192.879 327.793L193.226 311.767C193.111 302.313 185.37 294.703 175.897 294.818L93.2928 295.856C83.8193 295.971 76.1944 303.696 76.3099 313.151L77.1186 329.177L192.879 327.793Z" fill="#6633CC" fill-opacity="0.5"/>
<path d="M206.974 307.732C206.974 310.383 204.895 312.459 202.237 312.574L67.2986 314.188C64.6415 314.188 62.5619 312.113 62.4464 309.461L62.2153 292.397C62.2153 289.745 64.2949 287.67 66.9521 287.554L201.891 285.94C204.548 285.94 206.628 288.016 206.743 290.667L206.974 307.732Z" fill="#BD93F9"/>
<path d="M135.345 355.119L151.057 345.665L147.245 355.465L135.345 355.119Z" fill="white"/>
<path d="M129.454 340.246C129.454 340.246 130.724 340.246 132.688 343.243C134.652 346.241 139.043 354.312 139.043 354.312L147.014 350.738L148.863 347.625C148.863 347.625 145.397 340.707 142.624 340.246H129.454Z" fill="white"/>
<path d="M125.063 342.321C125.063 342.321 127.49 339.669 129.454 341.053C131.418 342.437 134.883 348.202 134.883 348.202L129.223 358.117L119.056 352.468L125.063 342.321Z" fill="white"/>
<path d="M142.509 367.456L143.317 385.673L136.501 377.718L142.509 367.456Z" fill="white"/>
<path d="M158.452 369.301C158.452 369.301 157.874 370.454 154.293 370.8C150.711 371.146 141.469 371.146 141.469 371.146L140.776 379.908L142.624 383.022C142.624 383.022 150.365 383.367 152.098 381.061L158.452 369.301Z" fill="white"/>
<path d="M158.567 364.458C158.567 364.458 159.838 367.802 157.643 368.955C155.563 369.993 148.747 370.223 148.747 370.223L142.624 360.538L152.444 354.197L158.567 364.458Z" fill="white"/>
<path d="M128.76 367.226L112.585 358.694L122.868 356.849L128.76 367.226Z" fill="white"/>
<path d="M119.056 380.024C119.056 380.024 118.363 378.986 119.865 375.758C121.367 372.529 125.988 364.574 125.988 364.574L118.825 359.616L115.243 359.731C115.243 359.731 111.084 366.303 112.124 368.84L119.056 380.024Z" fill="white"/>
<path d="M123.215 382.56C123.215 382.56 119.634 381.868 119.865 379.562C119.98 377.141 123.215 371.261 123.215 371.261L134.653 370.915L135.115 382.56H123.215Z" fill="white"/>
</g>
<defs>
<filter id="filter0_d" x="0" y="0" width="477" height="519" filterUnits="userSpaceOnUse" color-interpolation-filters="sRGB">
<feFlood flood-opacity="0" result="BackgroundImageFix"/>
<feColorMatrix in="SourceAlpha" type="matrix" values="0 0 0 0 0 0 0 0 0 0 0 0 0 0 0 0 0 0 127 0"/>
<feOffset dy="4"/>
<feGaussianBlur stdDeviation="2"/>
<feColorMatrix type="matrix" values="0 0 0 0 0 0 0 0 0 0 0 0 0 0 0 0 0 0 0.25 0"/>
<feBlend mode="normal" in2="BackgroundImageFix" result="effect1_dropShadow"/>
<feBlend mode="normal" in="SourceGraphic" in2="effect1_dropShadow" result="shape"/>
</filter>
</defs>
</svg>
